<?xml version="1.0" encoding="UTF-8" standalone="no"?>
<svg
   xmlns:dc="http://purl.org/dc/elements/1.1/"
   xmlns:cc="http://creativecommons.org/ns#"
   xmlns:rdf="http://www.w3.org/1999/02/22-rdf-syntax-ns#"
   xmlns:svg="http://www.w3.org/2000/svg"
   xmlns="http://www.w3.org/2000/svg"
   xmlns:sodipodi="http://sodipodi.sourceforge.net/DTD/sodipodi-0.dtd"
   xmlns:inkscape="http://www.inkscape.org/namespaces/inkscape"
   width="14"
   height="14"
   viewBox="0 0 3.7041666 3.7041668"
   version="1.1"
   id="svg851"
   inkscape:version="1.0.1 (3bc2e813f5, 2020-09-07)"
   sodipodi:docname="grabber_highlight.svg">
  <defs
     id="defs845" />
  <sodipodi:namedview
     id="base"
     pagecolor="#ffffff"
     bordercolor="#666666"
     borderopacity="1.0"
     inkscape:pageopacity="0.0"
     inkscape:pageshadow="2"
     inkscape:zoom="11.2"
     inkscape:cx="13.050825"
     inkscape:cy="4.3957758"
     inkscape:document-units="mm"
     inkscape:current-layer="layer1"
     inkscape:document-rotation="0"
     showgrid="false"
     units="px"
     inkscape:window-width="1366"
     inkscape:window-height="715"
     inkscape:window-x="-8"
     inkscape:window-y="-8"
     inkscape:window-maximized="1"
     showguides="false" />
  <metadata
     id="metadata848">
    <rdf:RDF>
      <cc:Work
         rdf:about="">
        <dc:format>image/svg+xml</dc:format>
        <dc:type
           rdf:resource="http://purl.org/dc/dcmitype/StillImage" />
        <dc:title></dc:title>
      </cc:Work>
    </rdf:RDF>
  </metadata>
  <g
     inkscape:label="Layer 1"
     inkscape:groupmode="layer"
     id="layer1">
    <path
       id="path878"
       style="fill:#ececec;fill-opacity:1;stroke-width:2.28975"
       d="M 6.90625 0 A 6.9999999 6.9999999 0 0 0 0 7 A 6.9999999 6.9999999 0 0 0 7 14 A 6.9999999 6.9999999 0 0 0 14 7 A 6.9999999 6.9999999 0 0 0 7 0 A 6.9999999 6.9999999 0 0 0 6.90625 0 z M 7 2 A 4.9999997 4.9999997 0 0 1 12 7 A 4.9999997 4.9999997 0 0 1 7 12 A 4.9999997 4.9999997 0 0 1 2 7 A 4.9999997 4.9999997 0 0 1 7 2 z "
       transform="scale(0.26458333)" />
    <circle
       style="fill:#ffffff;fill-opacity:1;stroke-width:0.60583"
       id="circle894"
       cx="1.8520833"
       cy="1.8520833"
       r="1.0583333" />
  </g>
</svg>
